<?xml version="1.0" encoding="UTF-8"?>
<svg xmlns="http://www.w3.org/2000/svg" xmlns:xlink="http://www.w3.org/1999/xlink" width="68px" height="39px" viewBox="0 0 68 39" version="1.1">
<g id="surface1">
<path style=" stroke:none;fill-rule:evenodd;fill:rgb(17.647059%,36.470588%,27.843137%);fill-opacity:1;" d="M 41.660156 6.296875 C 41.632812 6.34375 41.710938 6.363281 41.839844 6.339844 C 42.152344 6.277344 42.363281 6.542969 42.277344 6.886719 C 42.160156 7.355469 41.628906 7.492188 40.496094 7.339844 C 37.851562 6.988281 36.511719 7.824219 35.996094 10.152344 C 35.902344 10.570312 35.78125 10.960938 35.722656 11.015625 C 35.65625 11.085938 35.640625 11.050781 35.679688 10.914062 C 35.839844 10.339844 35.828125 10.152344 35.660156 10.621094 C 35.414062 11.324219 35.167969 11.691406 34.945312 11.691406 C 34.847656 11.691406 34.527344 11.851562 34.234375 12.050781 C 33.941406 12.25 33.679688 12.414062 33.65625 12.414062 C 33.628906 12.414062 33.648438 12.25 33.691406 12.050781 C 33.738281 11.847656 33.730469 11.664062 33.679688 11.632812 C 33.628906 11.601562 33.589844 11.695312 33.589844 11.84375 C 33.589844 12.167969 33.320312 12.722656 33.164062 12.722656 C 33.097656 12.722656 33.085938 12.652344 33.132812 12.542969 C 33.175781 12.445312 33.253906 12.128906 33.308594 11.84375 C 33.363281 11.558594 33.46875 11.101562 33.542969 10.824219 C 33.617188 10.546875 33.640625 10.359375 33.59375 10.410156 C 33.472656 10.546875 33.28125 11.175781 33.28125 11.441406 C 33.28125 12.007812 32.835938 12.882812 32.203125 13.550781 C 31.855469 13.921875 31.464844 14.375 31.339844 14.558594 L 31.109375 14.898438 L 24.082031 14.898438 C 17.1875 14.898438 17.046875 14.902344 16.847656 15.101562 C 16.59375 15.359375 16.566406 16.089844 16.800781 16.425781 L 16.960938 16.65625 L 45.164062 16.65625 L 45.359375 16.4375 C 45.488281 16.292969 45.554688 16.066406 45.554688 15.777344 C 45.554688 15.484375 45.488281 15.257812 45.359375 15.113281 C 45.167969 14.898438 45.113281 14.898438 40.515625 14.898438 L 35.867188 14.898438 L 35.640625 14.613281 L 35.417969 14.328125 L 35.582031 14.613281 L 35.75 14.898438 L 33.539062 14.898438 C 32.136719 14.898438 31.328125 14.859375 31.328125 14.792969 C 31.328125 14.738281 31.570312 14.445312 31.867188 14.144531 L 32.40625 13.601562 L 33.332031 13.566406 C 34.351562 13.53125 34.710938 13.625 35.179688 14.050781 L 35.488281 14.328125 L 35.230469 14.03125 C 34.769531 13.492188 33.90625 13.300781 32.832031 13.503906 C 32.628906 13.542969 32.460938 13.550781 32.460938 13.519531 C 32.460938 13.488281 32.78125 13.25 33.175781 12.984375 C 33.710938 12.625 34.042969 12.480469 34.515625 12.40625 C 34.859375 12.351562 35.183594 12.332031 35.234375 12.363281 C 35.289062 12.394531 35.457031 12.4375 35.617188 12.460938 C 35.773438 12.480469 36.304688 12.664062 36.800781 12.871094 C 37.300781 13.078125 37.738281 13.226562 37.78125 13.203125 C 37.820312 13.175781 38.082031 13.199219 38.363281 13.25 C 39.394531 13.445312 40.757812 13 41.671875 12.164062 C 42.320312 11.574219 42.679688 10.871094 42.886719 9.78125 C 42.972656 9.328125 43.117188 8.875 43.210938 8.773438 C 43.441406 8.515625 43.804688 8.539062 43.996094 8.820312 C 44.085938 8.945312 44.160156 8.992188 44.164062 8.921875 C 44.171875 8.710938 43.777344 8.378906 43.519531 8.378906 C 43.109375 8.378906 42.828125 8.8125 42.5625 9.847656 C 42.160156 11.425781 41.316406 12.429688 40.089844 12.789062 C 39.296875 13.019531 38.21875 12.933594 36.875 12.535156 C 36.28125 12.355469 35.660156 12.179688 35.488281 12.136719 L 35.179688 12.0625 L 35.453125 12.027344 C 35.601562 12.003906 36.21875 12.152344 36.820312 12.355469 C 37.425781 12.554688 38.132812 12.730469 38.398438 12.742188 C 39.164062 12.78125 40.128906 12.71875 39.933594 12.640625 C 39.800781 12.585938 39.914062 12.488281 40.410156 12.230469 C 40.765625 12.042969 41.167969 11.765625 41.304688 11.613281 C 41.4375 11.457031 41.46875 11.394531 41.371094 11.472656 C 41.160156 11.632812 41.140625 11.558594 41.3125 11.242188 C 41.378906 11.117188 41.441406 10.949219 41.453125 10.863281 C 41.460938 10.777344 41.5 10.519531 41.539062 10.292969 C 41.59375 9.949219 41.574219 9.980469 41.414062 10.464844 C 41.304688 10.785156 41.113281 11.195312 40.984375 11.378906 C 40.710938 11.765625 39.972656 12.332031 39.84375 12.25 C 39.792969 12.21875 39.753906 12.242188 39.753906 12.296875 C 39.753906 12.441406 38.707031 12.644531 38.351562 12.566406 C 37.824219 12.453125 35.953125 11.742188 35.953125 11.65625 C 35.953125 11.609375 36.054688 11.601562 36.183594 11.636719 C 36.34375 11.683594 36.371094 11.671875 36.273438 11.605469 C 36.175781 11.535156 36.167969 11.488281 36.25 11.4375 C 36.414062 11.335938 36.832031 10.472656 36.972656 9.953125 C 37.171875 9.207031 38.058594 8.390625 38.53125 8.515625 C 38.636719 8.542969 38.699219 8.523438 38.667969 8.472656 C 38.582031 8.332031 39.222656 8.363281 39.855469 8.535156 C 40.164062 8.617188 40.582031 8.679688 40.78125 8.671875 C 41.105469 8.660156 41.097656 8.652344 40.675781 8.597656 C 40.421875 8.5625 40.222656 8.484375 40.234375 8.425781 C 40.246094 8.359375 40.121094 8.328125 39.925781 8.355469 C 39.710938 8.378906 39.644531 8.363281 39.730469 8.300781 C 39.996094 8.113281 38.382812 8.289062 37.960938 8.496094 C 37.332031 8.796875 37.210938 8.917969 36.929688 9.527344 C 36.789062 9.835938 36.671875 10.039062 36.667969 9.984375 C 36.667969 9.925781 36.554688 10.152344 36.417969 10.488281 C 36.28125 10.824219 36.117188 11.152344 36.050781 11.214844 C 35.964844 11.296875 35.964844 11.261719 36.042969 11.070312 C 36.097656 10.925781 36.195312 10.5625 36.253906 10.257812 C 36.503906 8.996094 37.015625 8.28125 38 7.820312 C 38.421875 7.625 38.625 7.605469 40.09375 7.628906 C 42.132812 7.660156 42.421875 7.546875 42.421875 6.738281 C 42.421875 6.582031 42.367188 6.398438 42.300781 6.332031 C 42.15625 6.1875 41.742188 6.164062 41.660156 6.296875 M 37.824219 9.53125 C 37.582031 9.648438 37.332031 9.847656 37.269531 9.964844 C 37.171875 10.148438 37.203125 10.140625 37.480469 9.90625 C 37.664062 9.75 38.003906 9.574219 38.242188 9.507812 C 38.707031 9.382812 39.738281 9.445312 40.066406 9.625 C 40.3125 9.753906 40.335938 10.289062 40.117188 10.8125 C 40.035156 11.011719 39.992188 11.171875 40.019531 11.171875 C 40.136719 11.171875 40.367188 10.425781 40.367188 10.039062 C 40.367188 9.6875 40.324219 9.601562 40.066406 9.46875 C 39.597656 9.222656 38.367188 9.257812 37.824219 9.53125 M 37.835938 9.921875 C 37.660156 10.03125 37.484375 10.171875 37.445312 10.234375 C 37.40625 10.296875 37.546875 10.230469 37.757812 10.089844 C 38.070312 9.875 38.261719 9.828125 38.824219 9.828125 C 39.601562 9.828125 39.824219 9.945312 39.882812 10.398438 L 39.925781 10.707031 L 39.941406 10.375 C 39.964844 9.902344 39.664062 9.722656 38.832031 9.722656 C 38.351562 9.726562 38.066406 9.78125 37.835938 9.921875 M 37.96875 10.457031 C 37.632812 10.722656 37.632812 10.789062 37.96875 11.230469 C 38.296875 11.664062 38.546875 11.679688 38.9375 11.285156 C 39.277344 10.945312 39.351562 10.410156 39.074219 10.304688 C 38.746094 10.175781 38.230469 10.246094 37.96875 10.457031 M 21.367188 17.230469 C 21.367188 17.261719 21.414062 17.378906 21.472656 17.488281 C 21.570312 17.675781 21.707031 17.691406 23.632812 17.691406 C 25.253906 17.691406 25.699219 17.71875 25.738281 17.828125 C 25.769531 17.90625 25.777344 18.324219 25.761719 18.761719 L 25.730469 19.5625 L 25.273438 19.222656 C 24.886719 18.9375 24.710938 18.878906 24.128906 18.84375 C 23.285156 18.796875 22.742188 19.054688 22.40625 19.65625 C 21.832031 20.679688 22.375 21.898438 23.675781 22.515625 C 24.308594 22.8125 24.792969 22.824219 25.320312 22.550781 C 25.542969 22.4375 25.738281 22.34375 25.753906 22.34375 C 25.769531 22.34375 25.78125 22.621094 25.78125 22.960938 C 25.78125 23.464844 25.820312 23.597656 25.980469 23.6875 C 26.382812 23.902344 26.398438 23.84375 26.398438 22.171875 C 26.398438 20.660156 26.414062 20.523438 26.628906 20.203125 C 26.929688 19.753906 27.742188 19.34375 28.328125 19.34375 C 29.253906 19.34375 29.65625 20.253906 29.171875 21.25 C 28.859375 21.898438 28.351562 22.191406 27.566406 22.183594 C 26.847656 22.175781 26.824219 22.265625 27.464844 22.558594 C 28.019531 22.8125 28.492188 22.808594 29.039062 22.539062 C 30.21875 21.964844 30.328125 20.636719 29.289062 19.515625 C 28.65625 18.832031 27.527344 18.609375 26.832031 19.035156 C 26.648438 19.148438 26.472656 19.242188 26.449219 19.242188 C 26.421875 19.242188 26.398438 18.964844 26.398438 18.628906 C 26.398438 18.03125 26.386719 18.007812 25.921875 17.59375 L 25.445312 17.171875 L 23.40625 17.171875 C 22.285156 17.171875 21.367188 17.199219 21.367188 17.230469 M 26.5 17.308594 C 26.5 17.65625 26.726562 17.691406 29.140625 17.691406 L 31.535156 17.691406 L 31.535156 23.554688 L 31.800781 23.675781 C 31.945312 23.742188 32.105469 23.769531 32.160156 23.738281 C 32.214844 23.703125 32.253906 22.40625 32.253906 20.683594 L 32.253906 17.6875 L 38.777344 17.742188 L 38.804688 19.164062 C 38.820312 19.945312 38.808594 20.585938 38.78125 20.585938 C 38.753906 20.585938 38.53125 20.382812 38.285156 20.136719 C 37.613281 19.460938 36.785156 19.09375 35.847656 19.054688 C 34.8125 19.011719 34.261719 19.277344 33.910156 20 C 33.6875 20.445312 33.675781 20.539062 33.785156 20.90625 C 34.039062 21.753906 35.066406 22.570312 35.886719 22.570312 C 37.355469 22.570312 37.886719 20.980469 36.800781 19.835938 L 36.527344 19.550781 L 37.023438 19.699219 C 37.675781 19.898438 38.203125 20.335938 38.507812 20.9375 C 38.710938 21.328125 38.765625 21.625 38.804688 22.476562 C 38.835938 23.277344 38.886719 23.566406 39.011719 23.664062 C 39.433594 24 39.445312 23.933594 39.445312 20.742188 L 39.445312 17.691406 L 46.019531 17.691406 L 46.019531 20.628906 L 45.53125 20.148438 C 44.859375 19.488281 44.070312 19.105469 43.273438 19.054688 C 42.359375 18.992188 41.988281 19.089844 41.5 19.527344 C 41.136719 19.851562 41.058594 19.992188 41.011719 20.398438 C 40.96875 20.800781 41.007812 20.96875 41.230469 21.355469 C 41.980469 22.640625 43.796875 22.972656 44.40625 21.933594 C 44.605469 21.597656 44.636719 20.785156 44.464844 20.449219 C 44.402344 20.324219 44.207031 20.070312 44.027344 19.878906 L 43.707031 19.535156 L 44.015625 19.609375 C 44.867188 19.816406 45.710938 20.558594 45.90625 21.277344 C 45.96875 21.496094 46.015625 22.078125 46.015625 22.570312 C 46.019531 23.382812 46.039062 23.488281 46.246094 23.632812 C 46.738281 23.980469 46.738281 23.996094 46.738281 20.742188 L 46.738281 17.691406 L 47.40625 17.691406 C 47.773438 17.691406 48.074219 17.664062 48.074219 17.632812 C 48.074219 17.597656 48.023438 17.484375 47.964844 17.371094 C 47.863281 17.175781 47.632812 17.171875 37.179688 17.171875 C 28.488281 17.171875 26.5 17.199219 26.5 17.308594 M 23.984375 19.421875 C 23.394531 19.570312 22.8125 20.363281 22.804688 21.03125 C 22.800781 21.453125 23.070312 21.902344 23.4375 22.09375 C 23.84375 22.308594 24.4375 22.222656 25.039062 21.871094 C 25.613281 21.53125 25.800781 21.148438 25.761719 20.402344 C 25.730469 19.816406 25.726562 19.808594 25.273438 19.578125 C 24.835938 19.355469 24.4375 19.308594 23.984375 19.421875 M 35.46875 19.664062 C 35.023438 19.796875 34.535156 20.3125 34.457031 20.738281 C 34.304688 21.546875 34.648438 22.035156 35.363281 22.035156 C 36.175781 22.035156 36.703125 21.503906 36.714844 20.671875 C 36.726562 19.808594 36.257812 19.429688 35.46875 19.664062 M 42.527344 19.785156 C 41.917969 20.097656 41.6875 20.441406 41.679688 21.054688 C 41.667969 21.707031 42.003906 22.035156 42.6875 22.035156 C 43.0625 22.035156 43.210938 21.972656 43.519531 21.691406 C 43.84375 21.390625 43.898438 21.269531 43.9375 20.78125 C 43.980469 20.28125 43.953125 20.175781 43.707031 19.882812 C 43.378906 19.488281 43.140625 19.46875 42.527344 19.785156 M 20.402344 20.332031 C 20.292969 20.617188 20.332031 20.792969 20.503906 20.792969 C 20.609375 20.792969 20.648438 20.738281 20.605469 20.632812 C 20.570312 20.53125 20.589844 20.5 20.65625 20.542969 C 20.726562 20.582031 20.753906 20.539062 20.734375 20.425781 C 20.6875 20.179688 20.480469 20.121094 20.402344 20.332031 M 20.238281 21.871094 C 20.128906 22.167969 20.171875 22.34375 20.355469 22.34375 C 20.414062 22.34375 20.433594 22.261719 20.402344 22.164062 C 20.347656 22.015625 20.367188 22.019531 20.503906 22.191406 C 20.664062 22.390625 20.667969 22.386719 20.601562 22.085938 C 20.496094 21.625 20.363281 21.546875 20.238281 21.871094 "/>
<path style=" stroke:none;fill-rule:evenodd;fill:rgb(95.686275%,85.882353%,38.431373%);fill-opacity:1;" d="M 32.871094 4.808594 C 32.5625 4.890625 32.125 5.058594 31.898438 5.1875 C 31.671875 5.316406 31.277344 5.433594 31.023438 5.445312 C 30.441406 5.480469 29.710938 5.75 29.378906 6.054688 C 29.238281 6.179688 28.894531 6.386719 28.617188 6.507812 C 27.589844 6.957031 26.441406 7.839844 25.230469 9.113281 C 24.574219 9.804688 24.035156 10.402344 24.035156 10.449219 C 24.035156 10.492188 23.851562 10.839844 23.625 11.214844 C 23.199219 11.917969 22.804688 12.820312 22.804688 13.085938 C 22.804688 13.183594 22.863281 13.210938 22.976562 13.167969 C 23.097656 13.121094 23.128906 13.144531 23.082031 13.25 C 23.046875 13.332031 22.890625 13.710938 22.738281 14.09375 L 22.457031 14.792969 L 17.042969 14.792969 L 16.789062 15.046875 C 16.457031 15.382812 16.4375 16.105469 16.75 16.460938 L 16.964844 16.707031 L 16.804688 16.449219 C 16.570312 16.082031 16.589844 15.359375 16.847656 15.101562 C 17.046875 14.902344 17.1875 14.898438 24.082031 14.898438 L 31.109375 14.898438 L 31.339844 14.558594 C 31.464844 14.375 31.855469 13.921875 32.203125 13.550781 C 32.835938 12.882812 33.28125 12.007812 33.28125 11.441406 C 33.28125 11.175781 33.472656 10.546875 33.59375 10.410156 C 33.640625 10.359375 33.617188 10.546875 33.542969 10.824219 C 33.46875 11.101562 33.363281 11.558594 33.308594 11.84375 C 33.253906 12.128906 33.175781 12.445312 33.132812 12.542969 C 33.085938 12.652344 33.097656 12.722656 33.164062 12.722656 C 33.320312 12.722656 33.589844 12.167969 33.589844 11.84375 C 33.589844 11.695312 33.628906 11.601562 33.679688 11.632812 C 33.730469 11.664062 33.738281 11.847656 33.691406 12.050781 C 33.648438 12.25 33.628906 12.414062 33.65625 12.414062 C 33.679688 12.414062 33.941406 12.25 34.234375 12.050781 C 34.527344 11.851562 34.847656 11.691406 34.945312 11.691406 C 35.167969 11.691406 35.414062 11.324219 35.660156 10.621094 C 35.828125 10.152344 35.839844 10.339844 35.679688 10.914062 C 35.640625 11.050781 35.65625 11.085938 35.722656 11.015625 C 35.78125 10.960938 35.902344 10.570312 35.996094 10.152344 C 36.511719 7.824219 37.851562 6.988281 40.496094 7.339844 C 41.339844 7.453125 41.503906 7.449219 41.859375 7.300781 L 42.261719 7.128906 L 41.929688 6.929688 C 41.730469 6.804688 41.601562 6.644531 41.601562 6.511719 C 41.601562 6.375 41.644531 6.324219 41.71875 6.371094 C 41.789062 6.414062 41.8125 6.402344 41.769531 6.332031 C 41.730469 6.269531 41.800781 6.203125 41.933594 6.175781 L 42.167969 6.132812 L 41.941406 6.117188 C 41.8125 6.109375 41.636719 6.207031 41.53125 6.34375 L 41.351562 6.585938 L 40.628906 6.226562 C 39.976562 5.898438 38.386719 5.3125 37.03125 4.894531 C 36.308594 4.671875 33.625 4.617188 32.871094 4.808594 M 42.285156 6.308594 C 42.351562 6.394531 42.425781 6.605469 42.449219 6.777344 L 42.496094 7.085938 L 42.511719 6.761719 C 42.519531 6.5625 42.457031 6.386719 42.347656 6.296875 C 42.191406 6.171875 42.183594 6.175781 42.285156 6.308594 M 42.320312 7.21875 C 42.320312 7.285156 42.183594 7.410156 42.019531 7.496094 C 41.78125 7.621094 41.382812 7.648438 40.09375 7.628906 C 38.625 7.605469 38.421875 7.625 38 7.820312 C 37.015625 8.28125 36.503906 8.996094 36.253906 10.257812 C 36.195312 10.5625 36.097656 10.925781 36.042969 11.070312 C 35.964844 11.261719 35.964844 11.296875 36.050781 11.214844 C 36.117188 11.152344 36.28125 10.824219 36.417969 10.488281 C 36.554688 10.152344 36.667969 9.925781 36.667969 9.984375 C 36.671875 10.039062 36.789062 9.835938 36.929688 9.527344 C 37.210938 8.917969 37.332031 8.796875 37.960938 8.496094 C 38.382812 8.289062 39.996094 8.113281 39.730469 8.300781 C 39.644531 8.363281 39.710938 8.378906 39.925781 8.355469 C 40.121094 8.328125 40.246094 8.359375 40.234375 8.425781 C 40.222656 8.484375 40.421875 8.5625 40.675781 8.597656 C 41.097656 8.652344 41.105469 8.660156 40.78125 8.671875 C 40.582031 8.679688 40.164062 8.617188 39.855469 8.535156 C 39.222656 8.363281 38.582031 8.332031 38.667969 8.472656 C 38.699219 8.523438 38.636719 8.542969 38.53125 8.515625 C 38.058594 8.390625 37.171875 9.207031 36.972656 9.953125 C 36.832031 10.472656 36.414062 11.335938 36.25 11.4375 C 36.167969 11.488281 36.175781 11.535156 36.273438 11.605469 C 36.371094 11.671875 36.34375 11.683594 36.183594 11.636719 C 36.054688 11.601562 35.953125 11.609375 35.953125 11.65625 C 35.953125 11.742188 37.824219 12.453125 38.351562 12.566406 C 38.707031 12.644531 39.753906 12.441406 39.753906 12.296875 C 39.753906 12.242188 39.792969 12.21875 39.84375 12.25 C 39.972656 12.332031 40.710938 11.765625 40.984375 11.378906 C 41.113281 11.195312 41.304688 10.785156 41.414062 10.464844 C 41.574219 9.980469 41.59375 9.949219 41.539062 10.292969 C 41.5 10.519531 41.460938 10.777344 41.453125 10.863281 C 41.441406 10.949219 41.378906 11.117188 41.3125 11.242188 C 41.140625 11.558594 41.160156 11.632812 41.371094 11.472656 C 41.46875 11.394531 41.4375 11.457031 41.304688 11.613281 C 41.167969 11.765625 40.765625 12.042969 40.410156 12.230469 C 39.914062 12.488281 39.800781 12.585938 39.933594 12.640625 C 40.128906 12.71875 39.164062 12.78125 38.398438 12.742188 C 38.132812 12.730469 37.425781 12.554688 36.820312 12.355469 C 36.21875 12.152344 35.601562 12.003906 35.453125 12.027344 L 35.179688 12.0625 L 35.488281 12.136719 C 35.660156 12.179688 36.28125 12.355469 36.875 12.535156 C 38.21875 12.933594 39.296875 13.019531 40.089844 12.789062 C 41.316406 12.429688 42.160156 11.425781 42.5625 9.847656 C 42.828125 8.8125 43.109375 8.378906 43.519531 8.378906 C 43.777344 8.378906 44.171875 8.710938 44.164062 8.921875 C 44.160156 8.992188 44.085938 8.945312 43.996094 8.820312 C 43.804688 8.539062 43.441406 8.515625 43.210938 8.773438 C 43.117188 8.875 42.972656 9.328125 42.886719 9.78125 C 42.679688 10.871094 42.320312 11.574219 41.671875 12.164062 C 40.757812 13 39.394531 13.445312 38.363281 13.25 C 38.082031 13.199219 37.820312 13.175781 37.78125 13.203125 C 37.738281 13.226562 37.300781 13.078125 36.800781 12.871094 C 36.304688 12.664062 35.773438 12.480469 35.617188 12.460938 C 35.457031 12.4375 35.289062 12.394531 35.234375 12.363281 C 35.183594 12.332031 34.859375 12.351562 34.515625 12.40625 C 34.046875 12.480469 33.714844 12.625 33.199219 12.972656 C 32.527344 13.421875 31.328125 14.59375 31.328125 14.796875 C 31.328125 14.859375 32.167969 14.898438 33.539062 14.898438 L 35.75 14.898438 L 35.582031 14.613281 L 35.417969 14.328125 L 35.640625 14.613281 L 35.867188 14.898438 L 40.515625 14.898438 C 45.113281 14.898438 45.167969 14.898438 45.359375 15.113281 C 45.488281 15.257812 45.554688 15.484375 45.554688 15.777344 C 45.554688 16.066406 45.488281 16.292969 45.359375 16.4375 L 45.164062 16.65625 L 31.082031 16.679688 C 23.335938 16.691406 17.757812 16.714844 18.679688 16.734375 L 20.363281 16.765625 L 20.328125 18.90625 C 20.308594 20.085938 20.261719 21.097656 20.222656 21.15625 C 20.183594 21.210938 20.121094 21.523438 20.082031 21.847656 C 20.011719 22.421875 20.015625 22.441406 20.269531 22.503906 C 20.683594 22.609375 20.777344 22.484375 20.699219 21.945312 C 20.664062 21.679688 20.605469 21.359375 20.578125 21.234375 C 20.539062 21.066406 20.566406 21 20.679688 21 C 20.9375 21 20.957031 20.859375 20.804688 20.109375 C 20.726562 19.71875 20.648438 18.800781 20.628906 18.074219 L 20.59375 16.75 L 21.355469 16.78125 C 21.824219 16.796875 22.136719 16.855469 22.160156 16.929688 C 22.179688 16.996094 22.113281 17.074219 22.011719 17.101562 C 21.910156 17.125 22.640625 17.152344 23.636719 17.160156 L 25.445312 17.171875 L 25.921875 17.59375 C 26.386719 18.007812 26.398438 18.03125 26.398438 18.628906 C 26.398438 18.964844 26.421875 19.242188 26.449219 19.242188 C 26.472656 19.242188 26.648438 19.148438 26.832031 19.035156 C 27.527344 18.609375 28.65625 18.832031 29.289062 19.515625 C 30.328125 20.636719 30.21875 21.964844 29.039062 22.539062 C 28.492188 22.808594 28.019531 22.8125 27.464844 22.558594 C 26.824219 22.265625 26.847656 22.175781 27.566406 22.183594 C 28.351562 22.191406 28.859375 21.898438 29.171875 21.25 C 29.65625 20.253906 29.253906 19.34375 28.328125 19.34375 C 27.742188 19.34375 26.929688 19.753906 26.628906 20.203125 C 26.414062 20.523438 26.398438 20.660156 26.398438 22.171875 C 26.398438 23.84375 26.382812 23.902344 25.980469 23.6875 C 25.820312 23.597656 25.78125 23.464844 25.78125 22.960938 C 25.78125 22.621094 25.769531 22.34375 25.753906 22.34375 C 25.738281 22.34375 25.542969 22.4375 25.320312 22.550781 C 24.789062 22.824219 24.300781 22.8125 23.675781 22.503906 C 23.089844 22.214844 22.96875 22.121094 22.554688 21.621094 C 22.382812 21.414062 22.285156 21.347656 22.328125 21.464844 C 22.371094 21.578125 22.449219 21.882812 22.5 22.136719 C 22.679688 23.046875 23.03125 23.898438 23.230469 23.898438 C 23.269531 23.898438 23.492188 24.28125 23.71875 24.75 C 23.945312 25.21875 24.203125 25.691406 24.289062 25.804688 C 24.554688 26.144531 24.597656 25.878906 24.359375 25.367188 L 24.132812 24.878906 L 24.445312 25.242188 C 24.617188 25.441406 25.007812 25.953125 25.3125 26.378906 C 25.984375 27.316406 26.632812 27.96875 27.117188 28.1875 C 27.578125 28.394531 28.375 28.984375 28.433594 29.160156 C 28.488281 29.332031 28.144531 29.160156 27.945312 28.917969 C 27.777344 28.714844 27.527344 28.710938 27.527344 28.910156 C 27.527344 29.125 27.84375 29.265625 28.472656 29.335938 C 28.785156 29.371094 29.367188 29.566406 29.84375 29.792969 C 31.929688 30.796875 35.050781 31.136719 37.492188 30.625 C 39.519531 30.199219 41.421875 29.308594 42.882812 28.097656 C 44.078125 27.109375 45.464844 25.449219 46.148438 24.199219 C 46.398438 23.742188 46.398438 23.71875 46.210938 23.601562 C 46.046875 23.5 46.019531 23.351562 46.015625 22.578125 C 46.015625 22.078125 45.96875 21.496094 45.90625 21.277344 C 45.710938 20.558594 44.867188 19.816406 44.015625 19.609375 L 43.707031 19.535156 L 44.027344 19.878906 C 44.207031 20.070312 44.402344 20.324219 44.464844 20.449219 C 44.636719 20.785156 44.605469 21.597656 44.40625 21.933594 C 43.796875 22.972656 41.980469 22.640625 41.230469 21.355469 C 41.007812 20.96875 40.96875 20.800781 41.011719 20.398438 C 41.058594 19.992188 41.136719 19.851562 41.5 19.527344 C 41.988281 19.089844 42.359375 18.992188 43.273438 19.054688 C 44.070312 19.105469 44.859375 19.488281 45.53125 20.148438 L 46.019531 20.628906 L 46.019531 17.691406 L 39.445312 17.691406 L 39.445312 20.742188 C 39.445312 23.933594 39.433594 24 39.011719 23.664062 C 38.886719 23.566406 38.835938 23.277344 38.804688 22.476562 C 38.765625 21.625 38.710938 21.328125 38.507812 20.9375 C 38.203125 20.335938 37.675781 19.898438 37.023438 19.699219 L 36.527344 19.550781 L 36.800781 19.835938 C 37.886719 20.980469 37.355469 22.570312 35.886719 22.570312 C 35.066406 22.570312 34.039062 21.753906 33.785156 20.90625 C 33.675781 20.539062 33.6875 20.445312 33.910156 20 C 34.261719 19.277344 34.8125 19.011719 35.847656 19.054688 C 36.785156 19.09375 37.613281 19.460938 38.285156 20.136719 C 38.53125 20.382812 38.753906 20.585938 38.78125 20.585938 C 38.808594 20.585938 38.820312 19.945312 38.804688 19.164062 L 38.777344 17.742188 L 32.253906 17.6875 L 32.253906 20.683594 C 32.253906 22.40625 32.214844 23.703125 32.160156 23.738281 C 32.105469 23.769531 31.945312 23.742188 31.800781 23.675781 L 31.535156 23.554688 L 31.535156 17.691406 L 29.140625 17.691406 C 26.726562 17.691406 26.5 17.65625 26.5 17.308594 C 26.5 17.199219 28.480469 17.171875 37.148438 17.171875 L 47.792969 17.171875 L 47.738281 15.851562 C 47.644531 13.601562 47.261719 12.40625 46.042969 10.5625 C 45.511719 9.75 44.25 8.378906 44.039062 8.378906 C 43.988281 8.378906 43.730469 8.191406 43.460938 7.964844 C 43.195312 7.738281 42.933594 7.550781 42.886719 7.550781 C 42.835938 7.550781 42.6875 7.449219 42.558594 7.328125 C 42.425781 7.203125 42.320312 7.15625 42.320312 7.21875 M 37.824219 9.53125 C 37.582031 9.648438 37.332031 9.847656 37.269531 9.964844 C 37.171875 10.148438 37.203125 10.140625 37.480469 9.90625 C 37.664062 9.75 38.003906 9.574219 38.242188 9.507812 C 38.707031 9.382812 39.738281 9.445312 40.066406 9.625 C 40.3125 9.753906 40.335938 10.289062 40.117188 10.8125 C 40.035156 11.011719 39.992188 11.171875 40.019531 11.171875 C 40.136719 11.171875 40.367188 10.425781 40.367188 10.039062 C 40.367188 9.6875 40.324219 9.601562 40.066406 9.46875 C 39.597656 9.222656 38.367188 9.257812 37.824219 9.53125 M 37.835938 9.921875 C 37.660156 10.03125 37.484375 10.171875 37.445312 10.234375 C 37.40625 10.296875 37.546875 10.230469 37.757812 10.089844 C 38.070312 9.875 38.261719 9.828125 38.824219 9.828125 C 39.601562 9.828125 39.824219 9.945312 39.882812 10.398438 L 39.925781 10.707031 L 39.941406 10.375 C 39.964844 9.902344 39.664062 9.722656 38.832031 9.722656 C 38.351562 9.726562 38.066406 9.78125 37.835938 9.921875 M 37.96875 10.457031 C 37.632812 10.722656 37.632812 10.789062 37.96875 11.230469 C 38.296875 11.664062 38.546875 11.679688 38.9375 11.285156 C 39.277344 10.945312 39.351562 10.410156 39.074219 10.304688 C 38.746094 10.175781 38.230469 10.246094 37.96875 10.457031 M 23.492188 12.199219 C 23.152344 12.886719 23.121094 13.152344 23.410156 12.886719 C 23.671875 12.652344 23.855469 12.179688 23.808594 11.878906 C 23.777344 11.675781 23.726562 11.726562 23.492188 12.199219 M 33.136719 13.46875 C 32.265625 13.582031 32.308594 13.652344 33.207031 13.582031 C 34.21875 13.503906 34.644531 13.597656 35.105469 13.992188 C 35.457031 14.292969 35.46875 14.296875 35.234375 14.03125 C 35.089844 13.871094 34.894531 13.695312 34.796875 13.644531 C 34.46875 13.464844 33.746094 13.386719 33.136719 13.46875 M 47.964844 17.347656 C 48.023438 17.472656 48.074219 17.597656 48.074219 17.632812 C 48.074219 17.664062 47.773438 17.691406 47.40625 17.691406 L 46.738281 17.691406 L 46.738281 20.191406 C 46.738281 21.894531 46.769531 22.664062 46.84375 22.589844 C 47.101562 22.328125 47.660156 19.359375 47.660156 18.242188 C 47.660156 17.875 47.695312 17.800781 47.882812 17.773438 C 48.171875 17.730469 48.21875 17.578125 48.015625 17.324219 C 47.859375 17.125 47.859375 17.128906 47.964844 17.347656 M 21.789062 18.441406 C 21.859375 19.109375 22.050781 20.484375 22.132812 20.898438 C 22.148438 20.980469 22.167969 20.824219 22.175781 20.546875 C 22.191406 19.894531 22.511719 19.328125 23.03125 19.035156 C 23.367188 18.84375 23.554688 18.8125 24.128906 18.84375 C 24.710938 18.878906 24.886719 18.9375 25.273438 19.222656 L 25.730469 19.5625 L 25.761719 18.761719 C 25.777344 18.324219 25.769531 17.90625 25.738281 17.828125 C 25.699219 17.71875 25.265625 17.691406 23.699219 17.691406 L 21.714844 17.691406 L 21.789062 18.441406 M 23.984375 19.421875 C 23.394531 19.570312 22.8125 20.363281 22.804688 21.03125 C 22.800781 21.453125 23.070312 21.902344 23.4375 22.09375 C 23.84375 22.308594 24.4375 22.222656 25.039062 21.871094 C 25.613281 21.53125 25.800781 21.148438 25.761719 20.402344 C 25.730469 19.816406 25.726562 19.808594 25.273438 19.578125 C 24.835938 19.355469 24.4375 19.308594 23.984375 19.421875 M 35.46875 19.664062 C 35.023438 19.796875 34.535156 20.3125 34.457031 20.738281 C 34.304688 21.546875 34.648438 22.035156 35.363281 22.035156 C 36.175781 22.035156 36.703125 21.503906 36.714844 20.671875 C 36.726562 19.808594 36.257812 19.429688 35.46875 19.664062 M 42.527344 19.785156 C 41.917969 20.097656 41.6875 20.441406 41.679688 21.054688 C 41.667969 21.707031 42.003906 22.035156 42.6875 22.035156 C 43.0625 22.035156 43.210938 21.972656 43.519531 21.691406 C 43.84375 21.390625 43.898438 21.269531 43.9375 20.78125 C 43.980469 20.28125 43.953125 20.175781 43.707031 19.882812 C 43.378906 19.488281 43.140625 19.46875 42.527344 19.785156 M 20.402344 20.332031 C 20.292969 20.617188 20.332031 20.792969 20.503906 20.792969 C 20.609375 20.792969 20.648438 20.738281 20.605469 20.632812 C 20.570312 20.53125 20.589844 20.5 20.65625 20.542969 C 20.726562 20.582031 20.753906 20.539062 20.734375 20.425781 C 20.6875 20.179688 20.480469 20.121094 20.402344 20.332031 M 20.238281 21.871094 C 20.128906 22.167969 20.171875 22.34375 20.355469 22.34375 C 20.414062 22.34375 20.433594 22.261719 20.402344 22.164062 C 20.347656 22.015625 20.367188 22.019531 20.503906 22.191406 C 20.664062 22.390625 20.667969 22.386719 20.601562 22.085938 C 20.496094 21.625 20.363281 21.546875 20.238281 21.871094 M 22.863281 22.230469 C 22.75 22.414062 23.1875 23.601562 23.4375 23.792969 C 23.476562 23.824219 23.625 24.054688 23.769531 24.3125 C 23.914062 24.566406 24.035156 24.707031 24.03125 24.621094 C 24.03125 24.535156 23.890625 24.210938 23.714844 23.898438 C 23.542969 23.582031 23.296875 23.054688 23.167969 22.71875 C 23.03125 22.363281 22.90625 22.160156 22.863281 22.230469 M 29.890625 30.253906 C 29.890625 30.28125 29.984375 30.351562 30.097656 30.414062 C 30.339844 30.546875 30.609375 30.4375 30.390625 30.300781 C 30.242188 30.203125 29.890625 30.171875 29.890625 30.253906 "/>
</g>
</svg>
